<svg width="150" height="150" viewBox="0 0 100 99" fill="none" xmlns="http://www.w3.org/2000/svg">
    <path d="M9.24951 24.9761L49.7707 48.3442L90.7891 24.9761V71.2745C90.7891 73.3933 89.6654 75.3532 87.8369 76.4235L53.0334 96.7963C51.1717 97.886 48.8669 97.886 47.0053 96.7963L12.2018 76.4235C10.3732 75.3532 9.24951 73.3933 9.24951 71.2745V24.9761Z"
          fill="url(#paint0_linear_693_18078)"/>
    <path fill-rule="evenodd" clip-rule="evenodd"
          d="M9.00098 24.5458L49.7715 48.0576L91.0378 24.5484V71.2745C91.0378 73.4816 89.8672 75.5231 87.9625 76.638L53.159 97.0108C51.2198 98.146 48.8189 98.146 46.8797 97.0108L12.0762 76.638C10.1715 75.5231 9.00098 73.4816 9.00098 71.2745V24.5458ZM90.5406 25.4038L49.77 48.6307L9.49817 25.4064V71.2745C9.49817 73.305 10.5751 75.1832 12.3274 76.209L47.1309 96.5817C48.915 97.6261 51.1238 97.6261 52.9078 96.5817L87.7113 76.209C89.4637 75.1832 90.5406 73.305 90.5406 71.2745V25.4038Z"
          fill="url(#paint1_linear_693_18078)"/>
    <path d="M9.24951 63.7571L47.0053 85.858C48.8669 86.9478 51.1717 86.9478 53.0334 85.858L90.7891 63.7571V65.7459L54.038 87.2587C51.5559 88.7117 48.4827 88.7117 46.0006 87.2587L9.24951 65.7459V63.7571Z"
          fill="black" fill-opacity="0.3"/>
    <path d="M9.24951 65.2487L46.5029 87.0556C48.6748 88.3269 51.3638 88.3269 53.5357 87.0556L90.7891 65.2487V65.7459L53.5357 87.5528C51.3638 88.8241 48.6748 88.8241 46.5029 87.5528L9.24951 65.7459V65.2487Z"
          fill="white" fill-opacity="0.2"/>
    <path d="M46.0417 48.3442H53.9968V98.0634H46.0417V48.3442Z" fill="url(#paint2_linear_693_18078)"/>
    <path d="M47.7829 1.7693C49.0127 1.05431 50.5307 1.05051 51.764 1.75934L89.9957 23.7316C91.3328 24.5 91.3244 26.4319 89.9807 27.1887L51.7339 48.73C50.5159 49.416 49.0273 49.4123 47.8128 48.7203L10.0142 27.1839C8.68199 26.4248 8.67361 24.5073 9.99918 23.7366L47.7829 1.7693Z"
          fill="url(#paint3_linear_693_18078)"/>
    <path d="M47.7829 1.7693C49.0127 1.05431 50.5307 1.05051 51.764 1.75934L89.9957 23.7316C91.3328 24.5 91.3244 26.4319 89.9807 27.1887L51.7339 48.73C50.5159 49.416 49.0273 49.4123 47.8128 48.7203L10.0142 27.1839C8.68199 26.4248 8.67361 24.5073 9.99918 23.7366L47.7829 1.7693Z"
          fill="#4CA6FD"/>
    <path fill-rule="evenodd" clip-rule="evenodd"
          d="M47.658 1.55437C48.9647 0.794689 50.5775 0.790653 51.888 1.54378L90.1197 23.516C91.6238 24.3805 91.6144 26.5539 90.1028 27.4053L51.8559 48.9466C50.5619 49.6754 48.9802 49.6715 47.6898 48.9363L9.89123 27.3998C8.39245 26.5459 8.38303 24.3887 9.8743 23.5217L47.658 1.55437ZM51.6402 1.97485C50.484 1.31033 49.0609 1.31389 47.9079 1.98419L10.1242 23.9515C8.96432 24.6258 8.97165 26.3037 10.1374 26.9679L47.936 48.5043C49.0746 49.153 50.4701 49.1565 51.6119 48.5134L89.8588 26.9721C91.0345 26.3099 91.0418 24.6194 89.8719 23.9471L51.6402 1.97485Z"
          fill="url(#paint4_linear_693_18078)"/>
    <path d="M49.3755 11.2839C49.5196 11.2004 49.5916 11.1586 49.6682 11.1421C49.736 11.1274 49.8061 11.1271 49.874 11.1412C49.9508 11.1571 50.0232 11.1982 50.1679 11.2805L73.89 24.7696C74.2944 24.9995 74.4965 25.1145 74.5629 25.2643C74.6208 25.3949 74.6197 25.5441 74.5599 25.6738C74.4913 25.8227 74.2874 25.9346 73.8796 26.1584L50.1574 39.1824C50.0163 39.2599 49.9457 39.2986 49.8711 39.3136C49.8051 39.3269 49.737 39.3266 49.6711 39.3128C49.5966 39.2972 49.5264 39.2578 49.3859 39.1792L26.1289 26.1553C25.73 25.9318 25.5305 25.8201 25.463 25.6724C25.4041 25.5435 25.4029 25.3957 25.4599 25.2659C25.5252 25.1171 25.7229 25.0024 26.1185 24.773L49.3755 11.2839Z"
          fill="black" fill-opacity="0.2"/>
    <path fill-rule="evenodd" clip-rule="evenodd"
          d="M49.4057 9.92713C49.6431 9.87585 49.8885 9.8748 50.1262 9.92405C50.4117 9.98318 50.6604 10.1288 50.7577 10.1857C50.7675 10.1914 50.7758 10.1963 50.7824 10.2L74.5366 23.7073C74.7099 23.8058 74.9063 23.9174 75.0638 24.0271C75.2237 24.1385 75.5246 24.3661 75.6994 24.7608C75.902 25.218 75.8981 25.7401 75.6887 26.1942C75.508 26.5863 75.2038 26.8094 75.0422 26.9184C74.8831 27.0257 74.6851 27.1344 74.5103 27.2302L50.7557 40.272C50.7492 40.2755 50.7411 40.2801 50.7316 40.2855C50.6364 40.3392 50.3934 40.4765 50.116 40.5323C49.8849 40.5787 49.6468 40.5777 49.416 40.5293C49.1391 40.4712 48.8973 40.3319 48.8026 40.2774C48.7931 40.2719 48.785 40.2673 48.7786 40.2637L25.5216 27.2398C25.5111 27.2339 25.5004 27.2279 25.4897 27.2219C25.3189 27.1263 25.1243 27.0175 24.9678 26.9099C24.8076 26.7999 24.5098 26.577 24.3325 26.189C24.1264 25.738 24.1225 25.2205 24.3218 24.7664C24.4932 24.3758 24.7876 24.1484 24.9461 24.036C25.101 23.9261 25.294 23.8143 25.4633 23.7161C25.4739 23.71 25.4845 23.7039 25.4949 23.6978L48.752 10.2087C48.7586 10.2049 48.7668 10.2 48.7765 10.1942C48.8733 10.1364 49.1208 9.9887 49.4057 9.92713ZM49.7769 12.4881L27.4213 25.4544L49.7768 37.9734L72.5795 25.4543L49.7769 12.4881Z"
          fill="url(#paint5_linear_693_18078)"/>
    <path d="M16.2102 39.7791C16.2102 38.9916 16.7667 38.6724 17.4532 39.0662C18.1397 39.4599 18.6962 40.4175 18.6962 41.2051L18.6962 61.8811C18.6962 62.6686 18.1397 62.9878 17.4532 62.5941C16.7667 62.2003 16.2102 61.2427 16.2102 60.4552L16.2102 39.7791Z"
          fill="black"/>
    <path fill-rule="evenodd" clip-rule="evenodd"
          d="M17.4938 62.5941C18.0442 62.8998 18.5137 62.7758 18.6962 62.3365C18.5268 62.3339 18.3366 62.2795 18.1357 62.1679C17.4267 61.7742 16.852 60.8165 16.852 60.029L16.852 39.353C16.852 39.1768 16.8808 39.0241 16.9333 38.8976C16.5053 38.891 16.2102 39.2149 16.2102 39.7791L16.2102 60.4552C16.2102 61.2427 16.7849 62.2003 17.4938 62.5941Z"
          fill="black" fill-opacity="0.5"/>
    <path d="M22.6738 43.2594C22.6738 42.4719 23.2303 42.1527 23.9168 42.5465C24.6033 42.9402 25.1598 43.8979 25.1598 44.6854L25.1598 65.3614C25.1598 66.149 24.6033 66.4682 23.9168 66.0744C23.2303 65.6807 22.6738 64.723 22.6738 63.9355L22.6738 43.2594Z"
          fill="black"/>
    <path fill-rule="evenodd" clip-rule="evenodd"
          d="M23.9575 66.0744C24.5078 66.3801 24.9773 66.2561 25.1598 65.8168C24.9904 65.8142 24.8002 65.7599 24.5993 65.6482C23.8903 65.2545 23.3156 64.2969 23.3156 63.5093L23.3156 42.8333C23.3156 42.6572 23.3444 42.5045 23.397 42.3779C22.9689 42.3713 22.6738 42.6952 22.6738 43.2594L22.6738 63.9355C22.6738 64.723 23.2485 65.6806 23.9575 66.0744Z"
          fill="black" fill-opacity="0.5"/>
    <path d="M29.1372 47.237C29.1372 46.4495 29.6937 46.1303 30.3802 46.524C31.0667 46.9178 31.6232 47.8754 31.6232 48.6629L31.6232 69.339C31.6232 70.1265 31.0667 70.4457 30.3802 70.0519C29.6937 69.6582 29.1372 68.7006 29.1372 67.913L29.1372 47.237Z"
          fill="black"/>
    <path fill-rule="evenodd" clip-rule="evenodd"
          d="M30.4208 70.0519C30.9712 70.3576 31.4407 70.2336 31.6232 69.7943C31.4538 69.7917 31.2636 69.7374 31.0627 69.6258C30.3537 69.232 29.779 68.2744 29.779 67.4869L29.779 46.8108C29.779 46.6347 29.8078 46.482 29.8603 46.3555C29.4323 46.3489 29.1372 46.6727 29.1372 47.237L29.1372 67.913C29.1372 68.7006 29.7119 69.6582 30.4208 70.0519Z"
          fill="black" fill-opacity="0.5"/>
    <path d="M35.6008 50.7173C35.6008 49.9298 36.1573 49.6106 36.8438 50.0044C37.5303 50.3981 38.0868 51.3557 38.0868 52.1433L38.0868 72.8193C38.0868 73.6068 37.5303 73.9261 36.8438 73.5323C36.1573 73.1385 35.6008 72.1809 35.6008 71.3934L35.6008 50.7173Z"
          fill="black"/>
    <path fill-rule="evenodd" clip-rule="evenodd"
          d="M36.8845 73.5323C37.4349 73.838 37.9043 73.714 38.0868 73.2747C37.9174 73.2721 37.7273 73.2177 37.5263 73.1061C36.8174 72.7124 36.2426 71.7547 36.2426 70.9672L36.2426 50.2912C36.2426 50.115 36.2714 49.9623 36.324 49.8358C35.8959 49.8292 35.6008 50.1531 35.6008 50.7173L35.6008 71.3934C35.6008 72.1809 36.1755 73.1385 36.8845 73.5323Z"
          fill="black" fill-opacity="0.5"/>
    <g filter="url(#filter0_i_693_18078)">
        <path d="M75.8732 78.8153C75.8732 79.3867 75.486 80.0814 75.0085 80.367C74.5309 80.6527 74.1438 80.4211 74.1438 79.8498C74.1438 79.2785 74.5309 78.5838 75.0085 78.2981C75.486 78.0124 75.8732 78.244 75.8732 78.8153Z"
              fill="#F83CD9"/>
        <path d="M73.2792 80.367C73.2792 80.9384 72.892 81.6331 72.4145 81.9187C71.9369 82.2044 71.5498 81.9728 71.5498 81.4015C71.5498 80.8302 71.9369 80.1355 72.4145 79.8498C72.892 79.5641 73.2792 79.7957 73.2792 80.367Z"
              fill="black"/>
        <path d="M70.6852 81.9187C70.6852 82.49 70.298 83.1848 69.8205 83.4704C69.3429 83.7561 68.9558 83.5245 68.9558 82.9532C68.9558 82.3819 69.3429 81.6871 69.8205 81.4015C70.298 81.1158 70.6852 81.3474 70.6852 81.9187Z"
              fill="black"/>
        <path d="M68.0912 83.4704C68.0912 84.0418 67.7041 84.7365 67.2265 85.0221C66.7489 85.3078 66.3618 85.0762 66.3618 84.5049C66.3618 83.9336 66.7489 83.2389 67.2265 82.9532C67.7041 82.6675 68.0912 82.8991 68.0912 83.4704Z"
              fill="black"/>
        <path d="M65.4969 85.0221C65.4969 85.5935 65.1098 86.2882 64.6323 86.5739C64.1547 86.8595 63.7676 86.6279 63.7676 86.0566C63.7676 85.4853 64.1547 84.7906 64.6323 84.5049C65.1098 84.2192 65.4969 84.4508 65.4969 85.0221Z"
              fill="black"/>
        <path d="M62.903 86.5739C62.903 87.1452 62.5158 87.8399 62.0383 88.1256C61.5607 88.4113 61.1736 88.1797 61.1736 87.6084C61.1736 87.0371 61.5607 86.3423 62.0383 86.0567C62.5158 85.771 62.903 86.0026 62.903 86.5739Z"
              fill="black"/>
        <path d="M60.309 88.1256C60.309 88.6969 59.9218 89.3916 59.4443 89.6773C58.9667 89.9629 58.5796 89.7314 58.5796 89.16C58.5796 88.5887 58.9667 87.894 59.4443 87.6083C59.9218 87.3227 60.309 87.5543 60.309 88.1256Z"
              fill="black"/>
        <path d="M57.715 89.6773C57.715 90.2486 57.3278 90.9433 56.8503 91.229C56.3727 91.5146 55.9856 91.2831 55.9856 90.7117C55.9856 90.1404 56.3727 89.4457 56.8503 89.16C57.3278 88.8743 57.715 89.1059 57.715 89.6773Z"
              fill="black"/>
    </g>
    <g filter="url(#filter1_i_693_18078)">
        <path d="M84.8228 53.3161C84.8228 52.6296 85.3047 51.7948 85.8992 51.4516C86.4937 51.1083 86.9757 51.3866 86.9757 52.0731V53.0675C86.9757 53.7539 86.4937 54.5887 85.8992 54.9319C85.3047 55.2752 84.8228 54.9969 84.8228 54.3104L84.8228 53.3161Z"
              fill="black"/>
    </g>
    <g filter="url(#filter2_i_693_18078)">
        <path d="M84.8228 48.0955C84.8228 47.4091 85.3047 46.5743 85.8992 46.2311C86.4937 45.8878 86.9757 46.1661 86.9757 46.8526V47.8469C86.9757 48.5334 86.4937 49.3682 85.8992 49.7114C85.3047 50.0547 84.8228 49.7764 84.8228 49.0899L84.8228 48.0955Z"
              fill="black"/>
    </g>
    <g filter="url(#filter3_i_693_18078)">
        <path d="M84.8228 42.875C84.8228 42.1885 85.3047 41.3538 85.8992 41.0105C86.4937 40.6673 86.9757 40.9456 86.9757 41.632V42.6264C86.9757 43.3129 86.4937 44.1476 85.8992 44.4909C85.3047 44.8341 84.8228 44.5559 84.8228 43.8694L84.8228 42.875Z"
              fill="black"/>
    </g>
    <g filter="url(#filter4_i_693_18078)">
        <path d="M84.8228 37.6545C84.8228 36.968 85.3047 36.1333 85.8992 35.7901C86.4937 35.4468 86.9757 35.7251 86.9757 36.4115V37.4059C86.9757 38.0924 86.4937 38.9272 85.8992 39.2704C85.3047 39.6136 84.8228 39.3354 84.8228 38.6489L84.8228 37.6545Z"
              fill="black"/>
    </g>
    <g filter="url(#filter5_i_693_18078)">
        <path d="M64.0828 61.8323L75.163 55.1768V56.7127L64.0828 63.3682V61.8323Z" fill="black"/>
    </g>
    <g filter="url(#filter6_i_693_18078)">
        <path d="M61.0996 63.6242L62.8043 62.6002V64.1361L61.0996 65.16V63.6242Z" fill="black"/>
    </g>
    <g filter="url(#filter7_i_693_18078)">
        <path d="M55.9856 66.6959L59.8211 64.3921V65.928L55.9856 68.2318L55.9856 66.6959Z" fill="black"/>
    </g>
    <g filter="url(#filter8_i_693_18078)">
        <path d="M67.9182 56.4568L79.8508 49.2893V50.8252L67.9182 57.9926V56.4568Z" fill="black"/>
    </g>
    <g filter="url(#filter9_i_693_18078)">
        <path d="M64.9351 58.2486L66.6397 57.2247V58.7605L64.9351 59.7845V58.2486Z" fill="black"/>
    </g>
    <g filter="url(#filter10_i_693_18078)">
        <path d="M61.9519 60.0405L63.6566 59.0165V60.5524L61.9519 61.5763V60.0405Z" fill="black"/>
    </g>
    <g filter="url(#filter11_i_693_18078)">
        <path d="M58.9688 61.8323L60.6734 60.8084V62.3443L58.9688 63.3682V61.8323Z" fill="#F83CD9"/>
    </g>
    <g filter="url(#filter12_i_693_18078)">
        <path d="M55.9856 63.6242L57.6903 62.6002V64.1361L55.9856 65.16L55.9856 63.6242Z" fill="black"/>
    </g>
    <g filter="url(#filter13_i_693_18078)">
        <path d="M67.0659 53.8969L76.8677 48.0094V49.5453L67.0659 55.4328V53.8969Z" fill="black"/>
    </g>
    <g filter="url(#filter14_i_693_18078)">
        <path d="M55.9856 60.5525L65.7874 54.6649V56.2008L55.9856 62.0883L55.9856 60.5525Z" fill="black"/>
    </g>
    <g filter="url(#filter15_i_693_18078)">
        <path d="M75.1631 45.9615L79.8509 43.1458V44.6816L75.1631 47.4974V45.9615Z" fill="black"/>
    </g>
    <g filter="url(#filter16_i_693_18078)">
        <path d="M62.3779 53.6409L73.8844 46.7295V48.2653L62.3779 55.1768V53.6409Z" fill="#F83CD9"/>
    </g>
    <g filter="url(#filter17_i_693_18078)">
        <path d="M55.9856 57.4807L61.0996 54.4089V55.9448L55.9856 59.0165L55.9856 57.4807Z" fill="#F83CD9"/>
    </g>
    <g filter="url(#filter18_i_693_18078)">
        <path d="M69.1965 46.4735L76.0152 42.3778V43.9137L69.1965 48.0094V46.4735Z" fill="black"/>
    </g>
    <g filter="url(#filter19_i_693_18078)">
        <path d="M55.9856 54.4089L67.9182 47.2415V48.7773L55.9856 55.9448L55.9856 54.4089Z" fill="black"/>
    </g>
    <g filter="url(#filter20_i_693_18078)">
        <path d="M48.6464 12.9597C49.0558 12.7187 49.2605 12.5981 49.4787 12.5503C49.6717 12.508 49.8716 12.507 50.065 12.5475C50.2837 12.5932 50.4895 12.7118 50.9012 12.949L70.9244 24.484C71.4863 24.8078 71.7672 24.9696 71.8596 25.1798C71.9402 25.363 71.9385 25.572 71.8549 25.7539C71.759 25.9625 71.4755 26.1197 70.9083 26.4341L50.8687 37.543C50.4681 37.7651 50.2678 37.8761 50.0558 37.919C49.8682 37.9569 49.6749 37.956 49.4876 37.9163C49.2761 37.8714 49.0768 37.7585 48.6783 37.5327L29.0836 26.429C28.5301 26.1154 28.2533 25.9585 28.1591 25.7516C28.077 25.5711 28.0752 25.3642 28.1544 25.1823C28.2451 24.9738 28.5192 24.8124 29.0675 24.4895L48.6464 12.9597Z"
              fill="url(#paint6_linear_693_18078)"/>
    </g>
    <defs>
        <filter id="filter0_i_693_18078" x="55.9856" y="78.1757" width="19.8875" height="13.1756"
                filterUnits="userSpaceOnUse" color-interpolation-filters="sRGB">
            <feFlood flood-opacity="0" result="BackgroundImageFix"/>
            <feBlend mode="normal" in="SourceGraphic" in2="BackgroundImageFix" result="shape"/>
            <feColorMatrix in="SourceAlpha" type="matrix" values="0 0 0 0 0 0 0 0 0 0 0 0 0 0 0 0 0 0 127 0"
                           result="hardAlpha"/>
            <feOffset dy="-0.7"/>
            <feComposite in2="hardAlpha" operator="arithmetic" k2="-1" k3="1"/>
            <feColorMatrix type="matrix" values="0 0 0 0 0 0 0 0 0 0 0 0 0 0 0 0 0 0 0.5 0"/>
            <feBlend mode="normal" in2="shape" result="effect1_innerShadow_693_18078"/>
        </filter>
        <filter id="filter1_i_693_18078" x="84.8228" y="51.3046" width="2.15283" height="3.77439"
                filterUnits="userSpaceOnUse" color-interpolation-filters="sRGB">
            <feFlood flood-opacity="0" result="BackgroundImageFix"/>
            <feBlend mode="normal" in="SourceGraphic" in2="BackgroundImageFix" result="shape"/>
            <feColorMatrix in="SourceAlpha" type="matrix" values="0 0 0 0 0 0 0 0 0 0 0 0 0 0 0 0 0 0 127 0"
                           result="hardAlpha"/>
            <feOffset dx="-0.7" dy="-0.7"/>
            <feComposite in2="hardAlpha" operator="arithmetic" k2="-1" k3="1"/>
            <feColorMatrix type="matrix" values="0 0 0 0 0 0 0 0 0 0 0 0 0 0 0 0 0 0 0.5 0"/>
            <feBlend mode="normal" in2="shape" result="effect1_innerShadow_693_18078"/>
        </filter>
        <filter id="filter2_i_693_18078" x="84.8228" y="46.084" width="2.15283" height="3.77439"
                filterUnits="userSpaceOnUse" color-interpolation-filters="sRGB">
            <feFlood flood-opacity="0" result="BackgroundImageFix"/>
            <feBlend mode="normal" in="SourceGraphic" in2="BackgroundImageFix" result="shape"/>
            <feColorMatrix in="SourceAlpha" type="matrix" values="0 0 0 0 0 0 0 0 0 0 0 0 0 0 0 0 0 0 127 0"
                           result="hardAlpha"/>
            <feOffset dx="-0.7" dy="-0.7"/>
            <feComposite in2="hardAlpha" operator="arithmetic" k2="-1" k3="1"/>
            <feColorMatrix type="matrix" values="0 0 0 0 0 0 0 0 0 0 0 0 0 0 0 0 0 0 0.5 0"/>
            <feBlend mode="normal" in2="shape" result="effect1_innerShadow_693_18078"/>
        </filter>
        <filter id="filter3_i_693_18078" x="84.8228" y="40.8635" width="2.15283" height="3.77438"
                filterUnits="userSpaceOnUse" color-interpolation-filters="sRGB">
            <feFlood flood-opacity="0" result="BackgroundImageFix"/>
            <feBlend mode="normal" in="SourceGraphic" in2="BackgroundImageFix" result="shape"/>
            <feColorMatrix in="SourceAlpha" type="matrix" values="0 0 0 0 0 0 0 0 0 0 0 0 0 0 0 0 0 0 127 0"
                           result="hardAlpha"/>
            <feOffset dx="-0.7" dy="-0.7"/>
            <feComposite in2="hardAlpha" operator="arithmetic" k2="-1" k3="1"/>
            <feColorMatrix type="matrix" values="0 0 0 0 0 0 0 0 0 0 0 0 0 0 0 0 0 0 0.5 0"/>
            <feBlend mode="normal" in2="shape" result="effect1_innerShadow_693_18078"/>
        </filter>
        <filter id="filter4_i_693_18078" x="84.8228" y="35.643" width="2.15283" height="3.77438"
                filterUnits="userSpaceOnUse" color-interpolation-filters="sRGB">
            <feFlood flood-opacity="0" result="BackgroundImageFix"/>
            <feBlend mode="normal" in="SourceGraphic" in2="BackgroundImageFix" result="shape"/>
            <feColorMatrix in="SourceAlpha" type="matrix" values="0 0 0 0 0 0 0 0 0 0 0 0 0 0 0 0 0 0 127 0"
                           result="hardAlpha"/>
            <feOffset dx="-0.7" dy="-0.7"/>
            <feComposite in2="hardAlpha" operator="arithmetic" k2="-1" k3="1"/>
            <feColorMatrix type="matrix" values="0 0 0 0 0 0 0 0 0 0 0 0 0 0 0 0 0 0 0.5 0"/>
            <feBlend mode="normal" in2="shape" result="effect1_innerShadow_693_18078"/>
        </filter>
        <filter id="filter5_i_693_18078" x="64.0828" y="55.1768" width="11.0803" height="8.19138"
                filterUnits="userSpaceOnUse" color-interpolation-filters="sRGB">
            <feFlood flood-opacity="0" result="BackgroundImageFix"/>
            <feBlend mode="normal" in="SourceGraphic" in2="BackgroundImageFix" result="shape"/>
            <feColorMatrix in="SourceAlpha" type="matrix" values="0 0 0 0 0 0 0 0 0 0 0 0 0 0 0 0 0 0 127 0"
                           result="hardAlpha"/>
            <feOffset dy="-0.7"/>
            <feComposite in2="hardAlpha" operator="arithmetic" k2="-1" k3="1"/>
            <feColorMatrix type="matrix" values="0 0 0 0 0 0 0 0 0 0 0 0 0 0 0 0 0 0 0.5 0"/>
            <feBlend mode="normal" in2="shape" result="effect1_innerShadow_693_18078"/>
        </filter>
        <filter id="filter6_i_693_18078" x="61.0996" y="62.6002" width="1.70459" height="2.5598"
                filterUnits="userSpaceOnUse" color-interpolation-filters="sRGB">
            <feFlood flood-opacity="0" result="BackgroundImageFix"/>
            <feBlend mode="normal" in="SourceGraphic" in2="BackgroundImageFix" result="shape"/>
            <feColorMatrix in="SourceAlpha" type="matrix" values="0 0 0 0 0 0 0 0 0 0 0 0 0 0 0 0 0 0 127 0"
                           result="hardAlpha"/>
            <feOffset dy="-0.7"/>
            <feComposite in2="hardAlpha" operator="arithmetic" k2="-1" k3="1"/>
            <feColorMatrix type="matrix" values="0 0 0 0 0 0 0 0 0 0 0 0 0 0 0 0 0 0 0.5 0"/>
            <feBlend mode="normal" in2="shape" result="effect1_innerShadow_693_18078"/>
        </filter>
        <filter id="filter7_i_693_18078" x="55.9856" y="64.3921" width="3.83545" height="3.83971"
                filterUnits="userSpaceOnUse" color-interpolation-filters="sRGB">
            <feFlood flood-opacity="0" result="BackgroundImageFix"/>
            <feBlend mode="normal" in="SourceGraphic" in2="BackgroundImageFix" result="shape"/>
            <feColorMatrix in="SourceAlpha" type="matrix" values="0 0 0 0 0 0 0 0 0 0 0 0 0 0 0 0 0 0 127 0"
                           result="hardAlpha"/>
            <feOffset dy="-0.7"/>
            <feComposite in2="hardAlpha" operator="arithmetic" k2="-1" k3="1"/>
            <feColorMatrix type="matrix" values="0 0 0 0 0 0 0 0 0 0 0 0 0 0 0 0 0 0 0.5 0"/>
            <feBlend mode="normal" in2="shape" result="effect1_innerShadow_693_18078"/>
        </filter>
        <filter id="filter8_i_693_18078" x="67.9182" y="49.2893" width="11.9326" height="8.70333"
                filterUnits="userSpaceOnUse" color-interpolation-filters="sRGB">
            <feFlood flood-opacity="0" result="BackgroundImageFix"/>
            <feBlend mode="normal" in="SourceGraphic" in2="BackgroundImageFix" result="shape"/>
            <feColorMatrix in="SourceAlpha" type="matrix" values="0 0 0 0 0 0 0 0 0 0 0 0 0 0 0 0 0 0 127 0"
                           result="hardAlpha"/>
            <feOffset dy="-0.7"/>
            <feComposite in2="hardAlpha" operator="arithmetic" k2="-1" k3="1"/>
            <feColorMatrix type="matrix" values="0 0 0 0 0 0 0 0 0 0 0 0 0 0 0 0 0 0 0.5 0"/>
            <feBlend mode="normal" in2="shape" result="effect1_innerShadow_693_18078"/>
        </filter>
        <filter id="filter9_i_693_18078" x="64.9351" y="57.2247" width="1.70459" height="2.5598"
                filterUnits="userSpaceOnUse" color-interpolation-filters="sRGB">
            <feFlood flood-opacity="0" result="BackgroundImageFix"/>
            <feBlend mode="normal" in="SourceGraphic" in2="BackgroundImageFix" result="shape"/>
            <feColorMatrix in="SourceAlpha" type="matrix" values="0 0 0 0 0 0 0 0 0 0 0 0 0 0 0 0 0 0 127 0"
                           result="hardAlpha"/>
            <feOffset dy="-0.7"/>
            <feComposite in2="hardAlpha" operator="arithmetic" k2="-1" k3="1"/>
            <feColorMatrix type="matrix" values="0 0 0 0 0 0 0 0 0 0 0 0 0 0 0 0 0 0 0.5 0"/>
            <feBlend mode="normal" in2="shape" result="effect1_innerShadow_693_18078"/>
        </filter>
        <filter id="filter10_i_693_18078" x="61.9519" y="59.0165" width="1.70459" height="2.5598"
                filterUnits="userSpaceOnUse" color-interpolation-filters="sRGB">
            <feFlood flood-opacity="0" result="BackgroundImageFix"/>
            <feBlend mode="normal" in="SourceGraphic" in2="BackgroundImageFix" result="shape"/>
            <feColorMatrix in="SourceAlpha" type="matrix" values="0 0 0 0 0 0 0 0 0 0 0 0 0 0 0 0 0 0 127 0"
                           result="hardAlpha"/>
            <feOffset dy="-0.7"/>
            <feComposite in2="hardAlpha" operator="arithmetic" k2="-1" k3="1"/>
            <feColorMatrix type="matrix" values="0 0 0 0 0 0 0 0 0 0 0 0 0 0 0 0 0 0 0.5 0"/>
            <feBlend mode="normal" in2="shape" result="effect1_innerShadow_693_18078"/>
        </filter>
        <filter id="filter11_i_693_18078" x="58.9688" y="60.8084" width="1.70459" height="2.5598"
                filterUnits="userSpaceOnUse" color-interpolation-filters="sRGB">
            <feFlood flood-opacity="0" result="BackgroundImageFix"/>
            <feBlend mode="normal" in="SourceGraphic" in2="BackgroundImageFix" result="shape"/>
            <feColorMatrix in="SourceAlpha" type="matrix" values="0 0 0 0 0 0 0 0 0 0 0 0 0 0 0 0 0 0 127 0"
                           result="hardAlpha"/>
            <feOffset dy="-0.7"/>
            <feComposite in2="hardAlpha" operator="arithmetic" k2="-1" k3="1"/>
            <feColorMatrix type="matrix" values="0 0 0 0 0 0 0 0 0 0 0 0 0 0 0 0 0 0 0.5 0"/>
            <feBlend mode="normal" in2="shape" result="effect1_innerShadow_693_18078"/>
        </filter>
        <filter id="filter12_i_693_18078" x="55.9856" y="62.6002" width="1.70459" height="2.5598"
                filterUnits="userSpaceOnUse" color-interpolation-filters="sRGB">
            <feFlood flood-opacity="0" result="BackgroundImageFix"/>
            <feBlend mode="normal" in="SourceGraphic" in2="BackgroundImageFix" result="shape"/>
            <feColorMatrix in="SourceAlpha" type="matrix" values="0 0 0 0 0 0 0 0 0 0 0 0 0 0 0 0 0 0 127 0"
                           result="hardAlpha"/>
            <feOffset dy="-0.7"/>
            <feComposite in2="hardAlpha" operator="arithmetic" k2="-1" k3="1"/>
            <feColorMatrix type="matrix" values="0 0 0 0 0 0 0 0 0 0 0 0 0 0 0 0 0 0 0.5 0"/>
            <feBlend mode="normal" in2="shape" result="effect1_innerShadow_693_18078"/>
        </filter>
        <filter id="filter13_i_693_18078" x="67.0659" y="48.0094" width="9.80176" height="7.42343"
                filterUnits="userSpaceOnUse" color-interpolation-filters="sRGB">
            <feFlood flood-opacity="0" result="BackgroundImageFix"/>
            <feBlend mode="normal" in="SourceGraphic" in2="BackgroundImageFix" result="shape"/>
            <feColorMatrix in="SourceAlpha" type="matrix" values="0 0 0 0 0 0 0 0 0 0 0 0 0 0 0 0 0 0 127 0"
                           result="hardAlpha"/>
            <feOffset dy="-0.7"/>
            <feComposite in2="hardAlpha" operator="arithmetic" k2="-1" k3="1"/>
            <feColorMatrix type="matrix" values="0 0 0 0 0 0 0 0 0 0 0 0 0 0 0 0 0 0 0.5 0"/>
            <feBlend mode="normal" in2="shape" result="effect1_innerShadow_693_18078"/>
        </filter>
        <filter id="filter14_i_693_18078" x="55.9856" y="54.6649" width="9.80176" height="7.42343"
                filterUnits="userSpaceOnUse" color-interpolation-filters="sRGB">
            <feFlood flood-opacity="0" result="BackgroundImageFix"/>
            <feBlend mode="normal" in="SourceGraphic" in2="BackgroundImageFix" result="shape"/>
            <feColorMatrix in="SourceAlpha" type="matrix" values="0 0 0 0 0 0 0 0 0 0 0 0 0 0 0 0 0 0 127 0"
                           result="hardAlpha"/>
            <feOffset dy="-0.7"/>
            <feComposite in2="hardAlpha" operator="arithmetic" k2="-1" k3="1"/>
            <feColorMatrix type="matrix" values="0 0 0 0 0 0 0 0 0 0 0 0 0 0 0 0 0 0 0.5 0"/>
            <feBlend mode="normal" in2="shape" result="effect1_innerShadow_693_18078"/>
        </filter>
        <filter id="filter15_i_693_18078" x="75.1631" y="43.1458" width="4.68774" height="4.35166"
                filterUnits="userSpaceOnUse" color-interpolation-filters="sRGB">
            <feFlood flood-opacity="0" result="BackgroundImageFix"/>
            <feBlend mode="normal" in="SourceGraphic" in2="BackgroundImageFix" result="shape"/>
            <feColorMatrix in="SourceAlpha" type="matrix" values="0 0 0 0 0 0 0 0 0 0 0 0 0 0 0 0 0 0 127 0"
                           result="hardAlpha"/>
            <feOffset dy="-0.7"/>
            <feComposite in2="hardAlpha" operator="arithmetic" k2="-1" k3="1"/>
            <feColorMatrix type="matrix" values="0 0 0 0 0 0 0 0 0 0 0 0 0 0 0 0 0 0 0.5 0"/>
            <feBlend mode="normal" in2="shape" result="effect1_innerShadow_693_18078"/>
        </filter>
        <filter id="filter16_i_693_18078" x="62.3779" y="46.7295" width="11.5063" height="8.44736"
                filterUnits="userSpaceOnUse" color-interpolation-filters="sRGB">
            <feFlood flood-opacity="0" result="BackgroundImageFix"/>
            <feBlend mode="normal" in="SourceGraphic" in2="BackgroundImageFix" result="shape"/>
            <feColorMatrix in="SourceAlpha" type="matrix" values="0 0 0 0 0 0 0 0 0 0 0 0 0 0 0 0 0 0 127 0"
                           result="hardAlpha"/>
            <feOffset dy="-0.7"/>
            <feComposite in2="hardAlpha" operator="arithmetic" k2="-1" k3="1"/>
            <feColorMatrix type="matrix" values="0 0 0 0 0 0 0 0 0 0 0 0 0 0 0 0 0 0 0.5 0"/>
            <feBlend mode="normal" in2="shape" result="effect1_innerShadow_693_18078"/>
        </filter>
        <filter id="filter17_i_693_18078" x="55.9856" y="54.4089" width="5.11401" height="4.60764"
                filterUnits="userSpaceOnUse" color-interpolation-filters="sRGB">
            <feFlood flood-opacity="0" result="BackgroundImageFix"/>
            <feBlend mode="normal" in="SourceGraphic" in2="BackgroundImageFix" result="shape"/>
            <feColorMatrix in="SourceAlpha" type="matrix" values="0 0 0 0 0 0 0 0 0 0 0 0 0 0 0 0 0 0 127 0"
                           result="hardAlpha"/>
            <feOffset dy="-0.7"/>
            <feComposite in2="hardAlpha" operator="arithmetic" k2="-1" k3="1"/>
            <feColorMatrix type="matrix" values="0 0 0 0 0 0 0 0 0 0 0 0 0 0 0 0 0 0 0.5 0"/>
            <feBlend mode="normal" in2="shape" result="effect1_innerShadow_693_18078"/>
        </filter>
        <filter id="filter18_i_693_18078" x="69.1965" y="42.3778" width="6.8186" height="5.63156"
                filterUnits="userSpaceOnUse" color-interpolation-filters="sRGB">
            <feFlood flood-opacity="0" result="BackgroundImageFix"/>
            <feBlend mode="normal" in="SourceGraphic" in2="BackgroundImageFix" result="shape"/>
            <feColorMatrix in="SourceAlpha" type="matrix" values="0 0 0 0 0 0 0 0 0 0 0 0 0 0 0 0 0 0 127 0"
                           result="hardAlpha"/>
            <feOffset dy="-0.7"/>
            <feComposite in2="hardAlpha" operator="arithmetic" k2="-1" k3="1"/>
            <feColorMatrix type="matrix" values="0 0 0 0 0 0 0 0 0 0 0 0 0 0 0 0 0 0 0.5 0"/>
            <feBlend mode="normal" in2="shape" result="effect1_innerShadow_693_18078"/>
        </filter>
        <filter id="filter19_i_693_18078" x="55.9856" y="47.2415" width="11.9326" height="8.70333"
                filterUnits="userSpaceOnUse" color-interpolation-filters="sRGB">
            <feFlood flood-opacity="0" result="BackgroundImageFix"/>
            <feBlend mode="normal" in="SourceGraphic" in2="BackgroundImageFix" result="shape"/>
            <feColorMatrix in="SourceAlpha" type="matrix" values="0 0 0 0 0 0 0 0 0 0 0 0 0 0 0 0 0 0 127 0"
                           result="hardAlpha"/>
            <feOffset dy="-0.7"/>
            <feComposite in2="hardAlpha" operator="arithmetic" k2="-1" k3="1"/>
            <feColorMatrix type="matrix" values="0 0 0 0 0 0 0 0 0 0 0 0 0 0 0 0 0 0 0.5 0"/>
            <feBlend mode="normal" in2="shape" result="effect1_innerShadow_693_18078"/>
        </filter>
        <filter id="filter20_i_693_18078" x="28.0962" y="12.5178" width="43.8228" height="25.429"
                filterUnits="userSpaceOnUse" color-interpolation-filters="sRGB">
            <feFlood flood-opacity="0" result="BackgroundImageFix"/>
            <feBlend mode="normal" in="SourceGraphic" in2="BackgroundImageFix" result="shape"/>
            <feColorMatrix in="SourceAlpha" type="matrix" values="0 0 0 0 0 0 0 0 0 0 0 0 0 0 0 0 0 0 127 0"
                           result="hardAlpha"/>
            <feOffset dy="5.6"/>
            <feComposite in2="hardAlpha" operator="arithmetic" k2="-1" k3="1"/>
            <feColorMatrix type="matrix" values="0 0 0 0 0 0 0 0 0 0.666667 0 0 0 0 1 0 0 0 0.5 0"/>
            <feBlend mode="normal" in2="shape" result="effect1_innerShadow_693_18078"/>
        </filter>
        <linearGradient id="paint0_linear_693_18078" x1="50.0193" y1="24.9761" x2="50.0193" y2="97.6136"
                        gradientUnits="userSpaceOnUse">
            <stop stop-color="#5F65FB"/>
            <stop offset="1" stop-color="#D426FF"/>
        </linearGradient>
        <linearGradient id="paint1_linear_693_18078" x1="9.24957" y1="52.8189" x2="90.7892" y2="70.4692"
                        gradientUnits="userSpaceOnUse">
            <stop stop-color="#5C8AE6"/>
            <stop offset="0.847952" stop-color="#661F66"/>
        </linearGradient>
        <linearGradient id="paint2_linear_693_18078" x1="46.0417" y1="73.2038" x2="53.9968" y2="73.2038"
                        gradientUnits="userSpaceOnUse">
            <stop stop-opacity="0"/>
            <stop offset="0.499559" stop-opacity="0.1"/>
            <stop offset="1" stop-opacity="0"/>
        </linearGradient>
        <linearGradient id="paint3_linear_693_18078" x1="9.99517" y1="24.9761" x2="76.7471" y2="-5.09271"
                        gradientUnits="userSpaceOnUse">
            <stop stop-color="#527ACC"/>
            <stop offset="1" stop-color="#7A3D99"/>
        </linearGradient>
        <linearGradient id="paint4_linear_693_18078" x1="10.027" y1="48.2754" x2="28.3134" y2="-15.4135"
                        gradientUnits="userSpaceOnUse">
            <stop stop-color="#66CCFF"/>
            <stop offset="1" stop-color="#991F99"/>
        </linearGradient>
        <linearGradient id="paint5_linear_693_18078" x1="24.796" y1="25.061" x2="67.0618" y2="6.28102"
                        gradientUnits="userSpaceOnUse">
            <stop stop-color="#334466"/>
            <stop offset="1" stop-color="#191808"/>
        </linearGradient>
        <linearGradient id="paint6_linear_693_18078" x1="50.0192" y1="12.2977" x2="50.0192" y2="38.1517"
                        gradientUnits="userSpaceOnUse">
            <stop stop-color="#FFC90B"/>
            <stop offset="1" stop-color="#FFF8E1"/>
        </linearGradient>
    </defs>
</svg>
