<svg width="40" height="40" viewBox="0 0 46 47" fill="none" xmlns="http://www.w3.org/2000/svg">
    <rect width="45.914" height="46.6667" rx="10.5253" fill="#B0B0B0" fill-opacity="0.1"/>
    <g transform="translate(10 10)">
        <svg width="26" height="26" viewBox="0 0 26 26" fill="none" xmlns="http://www.w3.org/2000/svg">
            <path d="M8.02874 24.0434C5.6004 24.0434 3.61084 22.2782 3.61084 20.105V18.0235C3.61084 17.6052 3.95775 17.2583 4.37607 17.2583C4.7944 17.2583 5.14131 17.6052 5.14131 18.0235C5.14131 19.2989 6.37584 20.258 8.02874 20.258C9.68165 20.258 10.9162 19.2989 10.9162 18.0235C10.9162 17.6052 11.2631 17.2583 11.6815 17.2583C12.0998 17.2583 12.4467 17.6052 12.4467 18.0235V20.105C12.4467 22.2782 10.4673 24.0434 8.02874 24.0434ZM5.40654 21.1049C5.85547 21.9415 6.86559 22.5129 8.02874 22.5129C9.1919 22.5129 10.202 21.9313 10.651 21.1049C9.92653 21.5436 9.02865 21.7987 8.02874 21.7987C7.02884 21.7987 6.13096 21.5436 5.40654 21.1049Z"
                  fill="white"/>
            <path d="M8.02874 18.9926C6.35543 18.9926 4.85561 18.2274 4.11078 17.0132C3.78428 16.4826 3.61084 15.8602 3.61084 15.2276C3.61084 14.1563 4.08017 13.1564 4.93723 12.4116C6.59014 10.9628 9.43678 10.9628 11.0999 12.4015C11.9569 13.1565 12.4365 14.1563 12.4365 15.2276C12.4365 15.8602 12.263 16.4826 11.9365 17.0132C11.2019 18.2274 9.70205 18.9926 8.02874 18.9926ZM8.02874 12.8198C7.2329 12.8198 6.4983 13.085 5.94733 13.5645C5.42697 14.0135 5.14131 14.6053 5.14131 15.2276C5.14131 15.5848 5.23309 15.9114 5.41675 16.2174C5.88609 16.9929 6.886 17.4724 8.02874 17.4724C9.17149 17.4724 10.1714 16.9929 10.6305 16.2276C10.8142 15.9318 10.906 15.5951 10.906 15.2379C10.906 14.6156 10.6204 14.0237 10.1 13.5645C9.55924 13.085 8.82459 12.8198 8.02874 12.8198Z"
                  fill="white"/>
            <path d="M8.02874 21.799C5.50858 21.799 3.61084 20.1767 3.61084 18.034V15.2282C3.61084 13.0549 5.5902 11.2898 8.02874 11.2898C9.18169 11.2898 10.2837 11.6877 11.1101 12.4019C11.9671 13.157 12.4467 14.1569 12.4467 15.2282V18.034C12.4467 20.1767 10.5489 21.799 8.02874 21.799ZM8.02874 12.8203C6.43706 12.8203 5.14131 13.9018 5.14131 15.2282V18.034C5.14131 19.3094 6.37584 20.2685 8.02874 20.2685C9.68165 20.2685 10.9162 19.3094 10.9162 18.034V15.2282C10.9162 14.6058 10.6306 14.014 10.1102 13.5549C9.55925 13.0855 8.82459 12.8203 8.02874 12.8203Z"
                  fill="white"/>
            <path d="M20.14 15.9325C18.5994 15.9325 17.2934 14.7897 17.1709 13.3205C17.0893 12.4736 17.3954 11.6472 18.0076 11.0452C18.5178 10.5146 19.2422 10.2188 20.0074 10.2188H22.1399C23.15 10.2494 23.9254 11.0452 23.9254 12.0247V14.1265C23.9254 15.106 23.15 15.9019 22.1705 15.9325H20.14ZM22.1092 11.7492H20.0176C19.6605 11.7492 19.334 11.8819 19.0993 12.1267C18.8034 12.4124 18.6606 12.8001 18.7014 13.1879C18.7524 13.8613 19.4054 14.402 20.14 14.402H22.1399C22.2725 14.402 22.3949 14.2796 22.3949 14.1265V12.0247C22.3949 11.8717 22.2725 11.7594 22.1092 11.7492Z"
                  fill="white"/>
            <path d="M17.0385 22.5132H14.4877C14.0694 22.5132 13.7225 22.1663 13.7225 21.748C13.7225 21.3296 14.0694 20.9827 14.4877 20.9827H17.0385C19.6709 20.9827 21.3748 19.2788 21.3748 16.6464V15.9322H20.1403C18.5996 15.9322 17.2936 14.7894 17.1712 13.3202C17.0895 12.4733 17.3957 11.6469 18.0079 11.0449C18.5181 10.5144 19.2424 10.2185 20.0076 10.2185H21.3646V9.50424C21.3646 7.11671 19.9669 5.47399 17.7018 5.20871C17.4569 5.1679 17.2426 5.16792 17.0283 5.16792H7.84555C7.60067 5.16792 7.36599 5.18831 7.13132 5.21892C4.88663 5.50461 3.50923 7.13712 3.50923 9.50424V11.5449C3.50923 11.9632 3.16232 12.3101 2.74399 12.3101C2.32567 12.3101 1.97876 11.9632 1.97876 11.5449V9.50424C1.97876 6.36168 3.91739 4.0864 6.92731 3.70888C7.20279 3.66807 7.51905 3.63745 7.84555 3.63745H17.0283C17.2732 3.63745 17.5895 3.64765 17.916 3.69867C20.9259 4.04558 22.8951 6.33107 22.8951 9.50424V10.9837C22.8951 11.402 22.5482 11.7489 22.1299 11.7489H20.0076C19.6505 11.7489 19.3241 11.8816 19.0894 12.1264C18.7935 12.4121 18.6506 12.7998 18.6914 13.1876C18.7424 13.861 19.3955 14.4017 20.1302 14.4017H22.1401C22.5584 14.4017 22.9053 14.7486 22.9053 15.167V16.6464C22.9053 20.1563 20.5484 22.5132 17.0385 22.5132Z"
                  fill="white"/>
        </svg>
    </g>
</svg>
