<svg width="40" height="40" viewBox="0 0 46 47" fill="none" xmlns="http://www.w3.org/2000/svg">
    <rect width="45.914" height="46.6667" rx="10.5253" fill="#B0B0B0" fill-opacity="0.1"/>
    <g transform="translate(10 10)">
        <svg width="26" height="26" viewBox="0 0 26 26" fill="none" xmlns="http://www.w3.org/2000/svg">
            <path d="M11.0292 19.3122H7.16221C6.74388 19.3122 6.39697 18.9653 6.39697 18.547V13.323C6.39697 12.2619 7.26423 11.3945 8.32535 11.3945H11.0292C11.4475 11.3945 11.7944 11.7414 11.7944 12.1598V18.5367C11.7944 18.9652 11.4475 19.3122 11.0292 19.3122ZM7.92744 17.7818H10.2639V12.9353H8.32535C8.11108 12.9353 7.92744 13.1087 7.92744 13.3331V17.7818Z"
                  fill="white"/>
            <path d="M14.8851 19.3121H11.0182C10.5998 19.3121 10.2529 18.9652 10.2529 18.5469V8.6906C10.2529 7.62948 11.1202 6.76221 12.1813 6.76221H13.7322C14.7933 6.76221 15.6606 7.62948 15.6606 8.6906V18.5469C15.6504 18.9652 15.3137 19.3121 14.8851 19.3121ZM11.7936 17.7817H14.1301V8.6906C14.1301 8.47634 13.9566 8.29267 13.7322 8.29267H12.1813C11.967 8.29267 11.7834 8.46614 11.7834 8.6906V17.7817H11.7936Z"
                  fill="white"/>
            <path d="M18.7531 19.3121H14.8861C14.4678 19.3121 14.1208 18.9652 14.1208 18.5469V13.9044C14.1208 13.4861 14.4678 13.1392 14.8861 13.1392H17.5899C18.651 13.1392 19.5183 14.0064 19.5183 15.0675V18.5469C19.5183 18.9652 19.1816 19.3121 18.7531 19.3121ZM15.6513 17.7817H17.9878V15.0675C17.9878 14.8533 17.8144 14.6696 17.5899 14.6696H15.6513V17.7817Z"
                  fill="white"/>
            <path d="M16.018 24.0059H9.89618C4.35589 24.0059 1.98877 21.6388 1.98877 16.0985V9.97662C1.98877 4.43633 4.35589 2.06921 9.89618 2.06921H16.018C21.5583 2.06921 23.9254 4.43633 23.9254 9.97662V16.0985C23.9254 21.6388 21.5583 24.0059 16.018 24.0059ZM9.89618 3.59968C5.19254 3.59968 3.51924 5.27299 3.51924 9.97662V16.0985C3.51924 20.8021 5.19254 22.4754 9.89618 22.4754H16.018C20.7217 22.4754 22.395 20.8021 22.395 16.0985V9.97662C22.395 5.27299 20.7217 3.59968 16.018 3.59968H9.89618Z"
                  fill="white"/>
        </svg>
    </g>
</svg>
