<svg width="79" height="36" viewBox="0 0 79 36" fill="none" xmlns="http://www.w3.org/2000/svg">
    <g clip-path="url(#clip0_694_1244)">
        <path fill-rule="evenodd" clip-rule="evenodd" d="M22.5363 15.0142L22.5357 15.0158C24.0044 16.8574 24.8821 19.1898 24.8821 21.7268C24.8821 24.3014 23.9781 26.6655 22.4698 28.5196L22.3399 28.6792L22.3055 28.4763C22.2762 28.3038 22.2418 28.1296 22.2018 27.954C21.447 24.6374 18.9876 21.7934 14.9397 19.4907C12.2063 17.9399 10.6417 16.0727 10.2309 13.9511C9.96558 12.5792 10.1628 11.2012 10.544 10.0209C10.9251 8.84103 11.4919 7.85247 11.9735 7.2573L13.5484 5.3315C13.8246 4.99384 14.3413 4.99384 14.6175 5.3315L22.5363 15.0142ZM25.0269 13.0906L14.4731 0.184802C14.2715 -0.0616006 13.8943 -0.0616008 13.6928 0.184802L3.1385 13.09L3.10444 13.1333C1.16226 15.5434 0 18.6061 0 21.9402C0 29.7051 6.30498 36 14.0829 36C21.8608 36 28.1658 29.7051 28.1658 21.9402C28.1658 18.6062 27.0035 15.5434 25.0614 13.1333L25.0269 13.0906ZM5.66381 14.9727L6.60825 13.8178L6.63678 14.0309C6.65938 14.1997 6.68678 14.3694 6.71928 14.5398C7.33009 17.7446 9.51208 20.4169 13.1602 22.4865C16.3312 24.2912 18.1775 26.3666 18.7095 28.6427C18.9314 29.5926 18.971 30.5272 18.8749 31.3443L18.8689 31.3948L18.8232 31.4172C17.3919 32.1164 15.783 32.5088 14.0826 32.5088C8.11832 32.5088 3.28308 27.6817 3.28308 21.7268C3.28308 19.1701 4.17443 16.8208 5.66381 14.9727Z" fill="#F7F7F8"/>
    </g>
    <g clip-path="url(#clip1_694_1244)">
        <path d="M54.6542 12.7247C54.527 11.6507 54.0112 10.817 53.1069 10.2235C52.2025 9.63001 51.0932 9.33326 49.779 9.33326C48.8181 9.33326 47.9773 9.4887 47.2567 9.79958C46.543 10.1105 45.9849 10.5379 45.5821 11.082C45.1865 11.626 44.9886 12.2442 44.9886 12.9366C44.9886 13.516 45.1264 14.0141 45.402 14.431C45.6846 14.8408 46.0449 15.1835 46.483 15.459C46.921 15.7275 47.3803 15.9501 47.8608 16.1267C48.3412 16.2963 48.7828 16.4341 49.1855 16.54L51.3899 17.1335C51.9552 17.2819 52.584 17.4868 53.2764 17.7482C53.9759 18.0097 54.6436 18.3665 55.2795 18.8187C55.9224 19.2638 56.4524 19.8361 56.8692 20.5356C57.2861 21.235 57.4945 22.0935 57.4945 23.1109C57.4945 24.2838 57.1872 25.3436 56.5725 26.2904C55.9648 27.2372 55.0746 27.9896 53.9017 28.5478C52.7359 29.106 51.3193 29.3851 49.6518 29.3851C48.0974 29.3851 46.7515 29.1342 45.6139 28.6326C44.4835 28.1309 43.5932 27.4315 42.9432 26.5342C42.3002 25.6368 41.9363 24.5947 41.8516 23.4077H44.5647C44.6354 24.2273 44.9109 24.9056 45.3914 25.4425C45.8789 25.9724 46.4936 26.3681 47.2355 26.6295C47.9844 26.8839 48.7899 27.0111 49.6518 27.0111C50.6551 27.0111 51.556 26.8486 52.3544 26.5236C53.1528 26.1915 53.7851 25.7322 54.2515 25.1458C54.7178 24.5523 54.9509 23.8599 54.9509 23.0685C54.9509 22.3479 54.7496 21.7614 54.3468 21.3092C53.9441 20.857 53.4142 20.4896 52.7571 20.207C52.1 19.9244 51.3899 19.6771 50.6269 19.4651L47.9561 18.7021C46.2604 18.2146 44.918 17.5186 43.9288 16.6142C42.9396 15.7098 42.4451 14.5264 42.4451 13.0638C42.4451 11.8486 42.7736 10.7887 43.4307 9.88437C44.0949 8.97292 44.9851 8.26637 46.1014 7.76472C47.2249 7.25601 48.479 7.00165 49.8638 7.00165C51.2628 7.00165 52.5063 7.25248 53.5944 7.75412C54.6825 8.24871 55.5444 8.92699 56.1803 9.78898C56.8233 10.651 57.1624 11.6295 57.1978 12.7247H54.6542Z" fill="#F7F7F8"/>
        <path d="M69.9451 22.3479V12.7247H72.4463V29.0035H69.9451V26.248H69.7755C69.394 27.0747 68.8005 27.7777 67.995 28.357C67.1895 28.9293 66.1721 29.2155 64.9427 29.2155C63.9253 29.2155 63.0209 28.9929 62.2296 28.5478C61.4383 28.0956 60.8165 27.4173 60.3643 26.513C59.9121 25.6015 59.686 24.4534 59.686 23.0685V12.7247H62.1872V22.899C62.1872 24.086 62.5193 25.0327 63.1834 25.7393C63.8546 26.4458 64.7096 26.7991 65.7482 26.7991C66.37 26.7991 67.0023 26.6401 67.6453 26.3222C68.2953 26.0042 68.8393 25.5167 69.2774 24.8596C69.7225 24.2025 69.9451 23.3653 69.9451 22.3479Z" fill="#F7F7F8"/>
        <path d="M75.2368 29.0035V12.7247H77.7379V29.0035H75.2368ZM76.5085 10.0115C76.021 10.0115 75.6006 9.84551 75.2474 9.51343C74.9012 9.18135 74.728 8.78215 74.728 8.31583C74.728 7.84951 74.9012 7.45031 75.2474 7.11823C75.6006 6.78616 76.021 6.62012 76.5085 6.62012C76.9961 6.62012 77.4129 6.78616 77.7591 7.11823C78.1124 7.45031 78.289 7.84951 78.289 8.31583C78.289 8.78215 78.1124 9.18135 77.7591 9.51343C77.4129 9.84551 76.9961 10.0115 76.5085 10.0115Z" fill="#F7F7F8"/>
        <path fill-rule="evenodd" clip-rule="evenodd" d="M54.4886 12.9093L54.4691 12.7447C54.3484 11.7255 53.863 10.9408 53.0047 10.3775C52.1367 9.80789 51.0649 9.51784 49.7792 9.51784C48.8382 9.51784 48.0236 9.67003 47.331 9.96877C46.6432 10.2684 46.1131 10.6767 45.7327 11.1903C45.3612 11.7014 45.1753 12.2807 45.1753 12.9347C45.1753 13.4827 45.305 13.9432 45.5567 14.3247C45.824 14.7119 46.165 15.0364 46.5815 15.2986C47.0085 15.5602 47.456 15.7771 47.9241 15.9493C48.4003 16.1173 48.8366 16.2534 49.2331 16.3577L49.2341 16.358L51.4374 16.9512C51.4373 16.9512 51.4376 16.9512 51.4374 16.9512C52.0101 17.1016 52.6455 17.3087 53.3422 17.5717C54.057 17.8389 54.7386 18.2032 55.3867 18.664C56.0521 19.1249 56.5998 19.717 57.0296 20.4381C57.4675 21.1729 57.6812 22.0662 57.6812 23.109C57.6812 24.3162 57.3643 25.4114 56.7294 26.3895C56.1003 27.3696 55.1814 28.1434 53.9824 28.7141C52.7853 29.2873 51.3395 29.5697 49.652 29.5697C48.0779 29.5697 46.7052 29.3157 45.5388 28.8013C44.3818 28.2879 43.4638 27.5686 42.7923 26.6416C42.1277 25.7141 41.7527 24.6376 41.6656 23.419L41.6514 23.2192H44.736L44.7507 23.3897C44.8183 24.1745 45.0804 24.8127 45.5297 25.3153C45.9943 25.82 46.5817 26.1993 47.2966 26.4513C48.0243 26.6983 48.809 26.8226 49.652 26.8226C50.6347 26.8226 51.5108 26.6635 52.2833 26.3492C53.0568 26.0274 53.6617 25.5859 54.1054 25.028C54.5443 24.4692 54.7646 23.818 54.7646 23.0666C54.7646 22.3825 54.5744 21.8431 54.2077 21.4313C53.8261 21.0029 53.3201 20.6502 52.6835 20.3764C52.035 20.0975 51.3329 19.8529 50.5771 19.6429L50.5758 19.6426L47.905 18.8795C46.1901 18.3864 44.8191 17.6789 43.8031 16.7499C42.7715 15.8068 42.2587 14.5715 42.2587 13.0619C42.2587 11.8108 42.5976 10.7118 43.2799 9.77278C43.9647 8.83297 44.8817 8.10652 46.0249 7.59275C47.1752 7.07188 48.4559 6.81317 49.8639 6.81317C51.2852 6.81317 52.5559 7.06804 53.6721 7.58257C54.7854 8.08867 55.6735 8.7858 56.3303 9.67594C56.9963 10.569 57.3478 11.5844 57.3843 12.7167L57.3905 12.9093H54.4886ZM56.1805 9.78703C55.5446 8.92504 54.6826 8.24676 53.5945 7.75218C52.5064 7.25053 51.2629 6.9997 49.8639 6.9997C48.4791 6.9997 47.225 7.25406 46.1016 7.76278C44.9852 8.26442 44.095 8.97097 43.4308 9.88242C42.7737 10.7868 42.4452 11.8466 42.4452 13.0619C42.4452 14.5244 42.9398 15.7079 43.9289 16.6123C44.9181 17.5167 46.2606 18.2126 47.9563 18.7001L50.627 19.4632C51.3901 19.6752 52.1002 19.9225 52.7573 20.2051C53.4143 20.4877 53.9442 20.8551 54.347 21.3073C54.7497 21.7595 54.9511 22.3459 54.9511 23.0666C54.9511 23.8579 54.7179 24.5503 54.2516 25.1438C53.7853 25.7303 53.1529 26.1895 52.3545 26.5216C51.5561 26.8466 50.6553 27.0091 49.652 27.0091C48.79 27.0091 47.9845 26.8819 47.2356 26.6276C46.4937 26.3662 45.879 25.9705 45.3915 25.4406C44.911 24.9036 44.6355 24.2253 44.5648 23.4057H41.8517C41.8562 23.4683 41.8614 23.5305 41.8674 23.5923C41.9756 24.7022 42.3343 25.6822 42.9433 26.5322C43.5933 27.4295 44.4836 28.129 45.6141 28.6307C46.7516 29.1323 48.0976 29.3831 49.652 29.3831C51.3194 29.3831 52.7361 29.104 53.9019 28.5459C55.0747 27.9877 55.965 27.2352 56.5726 26.2884C57.1873 25.3417 57.4946 24.2819 57.4946 23.109C57.4946 22.0916 57.2862 21.2331 56.8694 20.5336C56.4525 19.8341 55.9226 19.2618 55.2796 18.8167C54.6437 18.3645 53.976 18.0077 53.2766 17.7463C52.5841 17.4849 51.9553 17.28 51.3901 17.1316L49.1856 16.5381C48.7829 16.4321 48.3413 16.2943 47.8609 16.1248C47.3804 15.9481 46.9212 15.7256 46.4831 15.4571C46.0451 15.1815 45.6847 14.8389 45.4021 14.429C45.1265 14.0122 44.9888 13.5141 44.9888 12.9347C44.9888 12.2423 45.1866 11.6241 45.5823 11.08C45.985 10.536 46.5432 10.1085 47.2568 9.79763C47.9775 9.48675 48.8183 9.33131 49.7792 9.33131C51.0933 9.33131 52.2026 9.62806 53.107 10.2216C54.0114 10.8151 54.5272 11.6488 54.6543 12.7227H57.1979C57.1959 12.6602 57.1929 12.598 57.1889 12.5362C57.1228 11.5162 56.7867 10.5998 56.1805 9.78703ZM69.7588 12.5362H72.633V29.1881H69.7588V26.6897C69.3658 27.391 68.813 27.9966 68.1042 28.5065L68.1033 28.5072C67.2593 29.1068 66.2015 29.4001 64.943 29.4001C63.8974 29.4001 62.9609 29.1711 62.1384 28.7084L62.1373 28.7078C61.3105 28.2354 60.6645 27.528 60.1977 26.5944C59.729 25.6496 59.4997 24.4703 59.4997 23.0666V12.5362H62.374V22.897C62.374 24.0475 62.6947 24.9447 63.3192 25.6092C63.9526 26.2758 64.7573 26.6106 65.7484 26.6106C66.3374 26.6106 66.9416 26.4602 67.5628 26.153C68.1805 25.8509 68.701 25.3864 69.1224 24.7542L69.1232 24.7531C69.5422 24.1345 69.7588 23.3365 69.7588 22.3459V12.5362ZM63.1837 25.7373C62.5195 25.0308 62.1874 24.084 62.1874 22.897V12.7227H59.6863V23.0666C59.6863 24.4514 59.9123 25.5996 60.3645 26.511C60.8167 27.4154 61.4385 28.0937 62.2298 28.5459C63.0212 28.991 63.9255 29.2136 64.943 29.2136C66.1724 29.2136 67.1898 28.9274 67.9952 28.3551C68.7889 27.7842 69.3767 27.0933 69.7588 26.2824C69.7645 26.2703 69.7701 26.2582 69.7757 26.2461H69.9453V29.0016H72.4465V12.7227H69.9453V22.3459C69.9453 23.3633 69.7228 24.2006 69.2776 24.8577C68.8396 25.5148 68.2955 26.0023 67.6455 26.3202C67.0025 26.6382 66.3702 26.7972 65.7484 26.7972C64.7098 26.7972 63.8549 26.4439 63.1837 25.7373ZM75.0504 29.1881V12.5362H77.9246V29.1881H75.0504ZM75.1197 9.64739L75.1184 9.6461C74.7367 9.27998 74.5417 8.83264 74.5417 8.31388C74.5417 7.79512 74.7367 7.34779 75.1184 6.98167L75.1197 6.98037C75.5078 6.61558 75.974 6.43164 76.5087 6.43164C77.0432 6.43164 77.5063 6.61549 77.8878 6.9811C78.2764 7.34672 78.4757 7.79417 78.4757 8.31388C78.4757 8.83361 78.2764 9.28108 77.8878 9.6467C77.5063 10.0123 77.0432 10.1961 76.5087 10.1961C75.974 10.1961 75.5078 10.0122 75.1197 9.64739ZM77.7593 9.51148C78.1125 9.1794 78.2892 8.7802 78.2892 8.31388C78.2892 7.84756 78.1125 7.44836 77.7593 7.11628C77.4131 6.78421 76.9962 6.61817 76.5087 6.61817C76.0212 6.61817 75.6008 6.78421 75.2475 7.11628C74.9013 7.44836 74.7282 7.84756 74.7282 8.31388C74.7282 8.7802 74.9013 9.1794 75.2475 9.51148C75.6008 9.84356 76.0212 10.0096 76.5087 10.0096C76.9962 10.0096 77.4131 9.84356 77.7593 9.51148ZM75.2369 29.0016H77.7381V12.7227H75.2369V29.0016Z" fill="#F7F7F8"/>
    </g>
    <defs>
        <clipPath id="clip0_694_1244">
            <rect width="29" height="36" fill="white"/>
        </clipPath>
        <clipPath id="clip1_694_1244">
            <rect width="38" height="24" fill="white" transform="translate(41 6)"/>
        </clipPath>
    </defs>
</svg>
